<svg xmlns="http://www.w3.org/2000/svg" width="158" height="80" viewBox="0 0 158 80" fill="none"><path d="M12.3194 17.1971C11.3448 14.7131 11.7679 11.8569 12.6656 9.45475C13.61 6.92706 15.2546 4.40629 17.7126 3.0769C17.8346 5.7406 17.0233 8.37229 16.1368 10.7454C15.3396 12.8798 14.3614 15.1538 12.7461 16.9191C12.4979 18.2566 12.3077 19.5904 12.1739 20.9181C12.7093 19.5155 13.5774 18.2371 14.6605 17.2091C16.055 15.8854 18.1294 14.864 20.0767 15.468C19.5063 17.6267 18.2063 19.6961 16.6666 21.1478C15.4548 22.2904 13.855 23.7546 11.9707 23.8121C11.8931 25.766 11.9369 27.702 12.0972 29.6117C12.3631 28.2141 12.9326 26.8981 13.7556 25.9181C14.8862 24.5715 16.5625 22.9263 18.7033 23.2015C18.5864 25.3864 17.7174 27.6251 16.5072 29.3072C15.5456 30.644 14.2761 32.3477 12.4741 32.7878C12.7627 34.6643 13.1646 36.5097 13.6745 38.3154C13.6794 36.9328 13.9839 35.5757 14.588 34.4872C15.4393 32.9523 16.7653 31.0381 18.9085 30.8884C19.2227 33.032 18.797 35.3752 17.9383 37.2389C17.252 38.7286 16.337 40.6283 14.6691 41.4143C15.3695 43.3571 16.1983 45.2455 17.1486 47.0683C16.815 45.4972 16.8283 43.8417 17.2232 42.3521C17.7673 40.2986 19.1179 38.1415 21.2864 37.5155C22.0529 39.7826 21.9472 42.3127 21.5019 44.6171C21.1354 46.5143 20.4154 48.7426 18.8013 49.9751C19.8565 51.6829 21.0239 53.322 22.2969 54.8815C21.6129 53.352 21.273 51.6792 21.4554 50.1477C21.7211 47.9166 22.3462 45.5298 24.6185 44.3403C25.9076 46.5711 26.2063 49.0737 26.3158 51.5455C26.4043 53.5438 26.1173 56.0086 24.7335 57.6343C26.2557 59.2215 27.8981 60.7071 29.6524 62.0769C28.5198 60.6198 27.7268 58.91 27.5588 57.2191C27.3217 54.83 27.4376 52.2 29.5516 50.4468C31.3596 52.3406 32.4384 55.1297 32.9672 57.5521C33.4347 59.694 33.9228 62.2291 32.8096 64.3369C35.0422 65.7984 37.4255 67.0861 39.9454 68.1766C38.1723 66.9094 36.7208 65.1707 36.0293 63.3757C35.1232 61.0226 34.5627 58.2187 36.3278 55.8621C38.6927 57.3814 40.4309 59.9734 41.8003 62.3374C42.9753 64.3658 44.1916 67.1655 43.5881 69.5814C44.9833 70.0561 46.4145 70.4731 47.8799 70.8287L47.7928 71.1895C46.3218 70.8324 44.8851 70.4141 43.4843 69.938C42.5028 72.8467 39.2878 73.8077 36.6877 74.232C32.983 74.8364 28.5717 73.6652 25.4089 71.3058C27.0782 68.9398 30.4841 68.6998 33.0523 68.5187L33.0857 68.5164C35.8992 68.3181 38.9422 68.5831 41.7714 69.3203C38.503 68.0724 35.4447 66.5035 32.6246 64.6591L32.5831 64.7249C31.0377 67.238 27.9351 67.336 25.4997 67.1771C22.1951 66.9614 18.3798 64.9461 16.1716 62.1604C18.2486 60.3327 21.3164 60.8443 23.6935 61.2406L23.705 61.2424C26.358 61.6847 29.2571 62.6497 31.6906 64.1354C31.4588 63.9523 31.2319 63.7586 31.0115 63.5555C28.6455 61.8637 26.4629 59.9712 24.4824 57.9078C24.4594 57.9309 24.4361 57.9538 24.4126 57.9766C22.4869 59.9195 19.6821 59.4107 17.4933 58.7784C14.5642 57.9323 11.5264 55.3795 10.0707 52.4489C12.3266 51.1812 15.0236 52.2258 17.1215 53.0521C19.424 53.9591 21.8601 55.4098 23.7332 57.2592C23.5401 57.0149 23.3559 56.7597 23.1817 56.4955C21.4407 54.5247 19.8745 52.4144 18.4976 50.1881L18.4286 50.2315C16.25 51.6415 13.7817 50.6204 11.8254 49.6163C9.17301 48.2549 7.04154 45.2629 6.12054 42.3204C8.47351 41.5646 10.7983 43.0481 12.6054 44.2231C14.582 45.508 16.5841 47.3406 17.9584 49.4423C17.8575 49.2352 17.7634 49.0235 17.6768 48.8078C16.3563 46.4974 15.2345 44.0718 14.3264 41.5557L14.2796 41.5717L14.2758 41.5731C12.295 42.3283 10.0891 41.1541 8.651 39.8664C6.65222 38.0769 5.24341 35.3257 4.91315 32.6378C6.97834 32.3695 8.92404 33.972 10.2543 35.3387C11.7855 36.9118 13.1598 38.7711 14.0047 40.8361C13.9431 40.6118 13.8902 40.384 13.8457 40.1538C13.0768 37.7894 12.4944 35.3509 12.1104 32.858L12.0805 32.8617L12.0704 32.8634C9.9762 33.214 8.04001 31.6172 6.88324 30.0675C5.26029 27.8929 4.42365 24.8832 4.63335 22.1554C6.71941 22.3017 8.30784 24.292 9.33791 25.902C10.5301 27.7658 11.5188 29.8752 11.9518 32.082C11.9386 31.9064 11.9308 31.7298 11.928 31.5527C11.61 29.0155 11.4967 26.4263 11.6004 23.8051L11.5944 23.8047C9.46523 23.7278 7.89168 21.7452 7.07928 19.9866C5.91683 17.47 5.72968 14.2889 6.50557 11.608C8.53487 12.1792 9.66618 14.5138 10.3339 16.3109C11.1038 18.3829 11.6412 20.6427 11.6455 22.8895C11.7562 21.0046 11.9793 19.1047 12.3194 17.1971Z" fill="white"></path><path d="M54.2545 12.5469V21.5466C54.2545 25.5049 50.6801 27.4093 45.2625 27.4093C40.1987 27.4093 36.5684 25.5236 36.5684 21.0798V12.5469H41.6136V21.0798C41.6136 22.6669 42.9726 23.6564 45.4673 23.6564C47.8503 23.6564 49.2653 22.6295 49.2653 21.0984V12.5469H54.2545Z" fill="white"></path><path d="M71.0575 23.3016V27.204H57.1133V12.5469H62.1585V23.3016H71.0575Z" fill="white"></path><path d="M86.0517 16.2252V12.5469H68.6074V16.2252H74.7697V27.204H79.8708V16.2252H86.0517Z" fill="white"></path><path fill-rule="evenodd" clip-rule="evenodd" d="M103.947 14.0407C104.617 14.7315 104.935 15.6838 104.935 17.0093C104.935 18.1484 104.655 19.1193 104.189 19.7727C103.668 20.4823 102.867 21.0798 101.88 21.2292L106.294 27.204H100.745L97.1144 22.032H92.591V27.204H87.6201V12.5469H99.2558C101.564 12.5469 103.072 13.107 103.947 14.0407ZM99.9262 18.2418C100.057 18.0176 100.093 17.7189 100.093 17.4763C100.093 17.1961 100.057 16.8973 99.9262 16.7107C99.6654 16.2252 99.1438 16.0946 98.3615 16.0946H92.6095V18.7646H98.4551C99.2558 18.7646 99.7406 18.6152 99.9262 18.2418Z" fill="white"></path><path fill-rule="evenodd" clip-rule="evenodd" d="M113.01 24.4967H120.903L122.187 27.204H127.569L120.196 12.5469H114.183L106.383 27.204H111.651L113.01 24.4967ZM119.32 21.2104H114.648L116.492 17.6816L117.05 16.3372L117.572 17.6629L119.32 21.2104Z" fill="white"></path><path fill-rule="evenodd" clip-rule="evenodd" d="M103.415 29.9644C100.291 29.9644 98.6484 31.449 98.6484 33.6305C98.6484 36.0928 100.373 37.3419 103.415 37.3419C106.763 37.3419 108.171 35.8936 108.171 33.6305C108.171 31.3313 106.582 29.9644 103.415 29.9644ZM103.415 35.5225C101.637 35.5225 101.121 34.7893 101.121 33.6577C101.121 32.5444 101.681 31.8111 103.405 31.8111C105.292 31.8111 105.715 32.6348 105.715 33.6577C105.715 34.744 105.202 35.5225 103.415 35.5225Z" fill="white"></path><path d="M94.0199 37.2333V33.0241H89.3085V34.554H91.8267C91.8087 34.6717 91.7184 34.898 91.601 35.0337C91.3393 35.3415 90.6443 35.613 89.7417 35.613C88.803 35.613 88.1983 35.3686 87.8734 34.9884C87.6568 34.7078 87.5304 34.3095 87.5304 33.7121C87.5304 33.0875 87.6568 32.6621 87.9004 32.3815C88.2525 31.9832 88.8481 31.8112 89.7237 31.8112C90.509 31.8112 91.0505 31.9921 91.3033 32.2184C91.4657 32.3543 91.592 32.5444 91.6191 32.671H93.9567C93.9478 32.4447 93.8756 32.0827 93.7492 31.8203C93.1896 30.6797 91.8899 30.0007 89.6786 30.0007C87.7561 30.0007 86.4654 30.589 85.7524 31.4763C85.283 32.0827 85.0664 32.843 85.0664 33.694C85.0664 34.6355 85.3191 35.441 85.7343 35.9752C86.4382 36.8895 87.6929 37.342 89.2002 37.342C90.5271 37.342 91.4386 37.0252 92.0163 36.5455L92.0795 37.2333H94.0199Z" fill="white"></path><path d="M69.4326 32.9336C71.2648 33.1326 72.05 33.7845 72.05 35.0246C72.05 36.5273 70.5878 37.3419 67.7086 37.3419C65.0279 37.3419 63.8727 36.5816 63.4303 35.5859C63.331 35.3505 63.2859 35.0608 63.2588 34.8797H65.8583C65.8764 34.9883 65.9396 35.1513 66.0298 35.2599C66.2464 35.5225 66.8511 35.6763 67.8801 35.6763C69.207 35.6763 69.5228 35.4862 69.5228 35.1333C69.5228 34.753 69.1979 34.6716 67.9974 34.5448C67.5191 34.4996 66.7609 34.4271 66.445 34.4C64.1525 34.1917 63.304 33.4766 63.304 32.2546C63.304 30.9873 64.8023 30.0188 67.5371 30.0188C69.965 30.0188 71.0933 30.743 71.5627 31.6482C71.707 31.9197 71.7972 32.2274 71.8244 32.4446H69.2249C69.2159 32.3451 69.1798 32.2456 69.0806 32.1188C68.8819 31.8563 68.3765 31.6843 67.4739 31.6843C66.2013 31.6843 65.8673 31.8382 65.8673 32.164C65.8673 32.5262 66.2916 32.6077 67.7086 32.7616C68.2591 32.8068 69.1347 32.8973 69.4326 32.9336Z" fill="white"></path><path fill-rule="evenodd" clip-rule="evenodd" d="M43.5197 30.7339C43.998 31.1141 44.2687 31.7568 44.2687 32.6891C44.2687 33.4496 44.0793 34.0197 43.7182 34.4181C43.2309 34.9793 42.4275 35.2328 41.3806 35.2419C41.0555 35.251 38.2756 35.2419 38.2756 35.2419V37.2333H35.8477V30.1274H41.3444C42.3192 30.1274 43.0594 30.3265 43.5197 30.7339ZM41.7236 33.2413C41.7957 33.1147 41.8319 32.9516 41.8319 32.7253C41.8319 32.4901 41.7866 32.2908 41.7055 32.1822C41.5521 31.9559 41.2632 31.8473 40.7938 31.8473H38.2575V33.5853H40.7757C41.2812 33.5853 41.5791 33.4676 41.7236 33.2413Z" fill="white"></path><path fill-rule="evenodd" clip-rule="evenodd" d="M53.151 30.8516C53.476 31.1865 53.6294 31.6482 53.6294 32.2908C53.6294 32.843 53.494 33.3137 53.2683 33.6305C53.0157 33.9745 52.6276 34.2642 52.1492 34.3367L54.2883 37.2333H51.5986L49.8385 34.7259H47.6452V37.2333H45.2354V30.1274H50.8766C51.9958 30.1274 52.7268 30.399 53.151 30.8516ZM51.2015 32.8884C51.2647 32.7797 51.2826 32.6348 51.2826 32.5171C51.2826 32.3814 51.2647 32.2365 51.2015 32.1461C51.0751 31.9107 50.8224 31.8473 50.4434 31.8473H47.6543V33.1418H50.4885C50.8766 33.1418 51.1113 33.0693 51.2015 32.8884Z" fill="white"></path><path d="M62.5278 37.2333V35.4682H57.4464V34.5448H62.3203V32.8159H57.4464V31.9016H62.4646V30.1274H55.0635V37.2333H62.5278Z" fill="white"></path><path d="M80.8331 31.9107V30.1274H72.376V31.9107H75.3634V37.2333H77.8365V31.9107H80.8331Z" fill="white"></path><path d="M84.0857 30.1274V37.2333H81.6035V30.1274H84.0857Z" fill="white"></path><path d="M97.6681 30.1274V37.2333H95.1855V30.1274H97.6681Z" fill="white"></path><path d="M117.749 30.1274V34.4905C117.749 36.4096 116.015 37.333 113.389 37.333C110.935 37.333 109.174 36.4187 109.174 34.2642V30.1274H111.621V34.2642C111.621 35.0336 112.279 35.5134 113.489 35.5134C114.644 35.5134 115.33 35.0156 115.33 34.2733V30.1274H117.749Z" fill="white"></path><path d="M127.492 35.0246C127.492 33.7845 126.707 33.1326 124.875 32.9336C124.576 32.8973 123.702 32.8068 123.151 32.7616C121.734 32.6077 121.309 32.5262 121.309 32.164C121.309 31.8382 121.643 31.6843 122.917 31.6843C123.819 31.6843 124.325 31.8563 124.523 32.1188C124.622 32.2456 124.658 32.3451 124.667 32.4446H127.267C127.239 32.2274 127.149 31.9197 127.005 31.6482C126.535 30.743 125.408 30.0188 122.979 30.0188C120.244 30.0188 118.746 30.9873 118.746 32.2546C118.746 33.4766 119.595 34.1917 121.887 34.4L122.035 34.4131L122.28 34.4356L123.44 34.5448C124.641 34.6716 124.964 34.753 124.964 35.1333C124.964 35.4862 124.65 35.6763 123.323 35.6763C122.294 35.6763 121.689 35.5225 121.472 35.2599C121.383 35.1513 121.318 34.9883 121.301 34.8797H118.701C118.729 35.0608 118.773 35.3505 118.873 35.5859C119.315 36.5816 120.47 37.3419 123.151 37.3419C126.031 37.3419 127.492 36.5273 127.492 35.0246Z" fill="white"></path><path fill-rule="evenodd" clip-rule="evenodd" d="M64.3756 39.9541C62.346 39.9541 61.2783 40.919 61.2783 42.3369C61.2783 43.937 62.3987 44.7489 64.3756 44.7489C66.552 44.7489 67.467 43.8076 67.467 42.3369C67.467 40.8426 66.4346 39.9541 64.3756 39.9541ZM64.3756 43.5664C63.22 43.5664 62.8856 43.0898 62.8856 42.3544C62.8856 41.6309 63.2493 41.1543 64.3698 41.1543C65.5957 41.1543 65.8715 41.6896 65.8715 42.3544C65.8715 43.0604 65.5371 43.5664 64.3756 43.5664Z" fill="white"></path><path d="M53.0886 43.2429C53.0886 42.4369 52.5783 42.0132 51.3874 41.8838C51.1938 41.8603 50.6249 41.8015 50.267 41.7721C49.346 41.672 49.0704 41.619 49.0704 41.3838C49.0704 41.172 49.2874 41.072 50.1145 41.072C50.7011 41.072 51.0296 41.1837 51.1587 41.3543C51.2231 41.4367 51.2466 41.5014 51.2526 41.5661H52.942C52.9243 41.4249 52.8657 41.2249 52.7719 41.0484C52.4667 40.4601 51.7335 39.9895 50.1555 39.9895C48.3782 39.9895 47.4045 40.6189 47.4045 41.4426C47.4045 42.2369 47.9558 42.7017 49.4457 42.8369C49.6511 42.8546 50.1438 42.9017 50.4548 42.931C51.235 43.0133 51.446 43.0664 51.446 43.3135C51.446 43.5429 51.2408 43.6664 50.3785 43.6664C49.7097 43.6664 49.3167 43.5664 49.1759 43.3958C49.1173 43.3252 49.0762 43.2193 49.0645 43.1487H47.375C47.3926 43.2664 47.4219 43.4546 47.4865 43.6077C47.774 44.2547 48.5249 44.7489 50.267 44.7489C52.1383 44.7489 53.0886 44.2195 53.0886 43.2429Z" fill="white"></path><path fill-rule="evenodd" clip-rule="evenodd" d="M41.3767 43.3721C41.3767 43.6898 41.2886 44.0017 41.1127 44.2075C40.8429 44.537 40.3383 44.6781 39.6873 44.6781H35.5986V40.0598H39.5758C40.2093 40.0598 40.6141 40.2129 40.837 40.4423C41.0364 40.6423 41.1245 40.907 41.1245 41.207C41.1245 41.5072 41.0541 41.7543 40.9016 41.9366C40.7783 42.0897 40.5672 42.2072 40.3443 42.2367C40.6727 42.2778 40.9837 42.4426 41.1596 42.672C41.3063 42.8426 41.3767 43.1015 41.3767 43.3721ZM39.3998 41.7543C39.4584 41.6895 39.4937 41.5954 39.4937 41.4837C39.4937 41.3718 39.4584 41.2777 39.3822 41.213C39.3001 41.1364 39.1475 41.107 38.9246 41.107H37.1355V41.8601H38.9657C39.1651 41.8601 39.3178 41.8307 39.3998 41.7543ZM39.1358 43.631C39.4115 43.631 39.5758 43.5957 39.6697 43.5075C39.7283 43.4486 39.7517 43.3604 39.7517 43.2486C39.7517 43.1309 39.7224 43.0427 39.652 42.9721C39.5641 42.8957 39.4115 42.8603 39.1535 42.8603H37.1355V43.631H39.1358Z" fill="white"></path><path d="M46.9 43.531V44.6781H42.0488V40.0598H46.8589V41.213H43.5974V41.8072H46.7651V42.9309H43.5974V43.531H46.9Z" fill="white"></path><path d="M58.7972 40.0598V41.2189H56.8496V44.6781H55.2425V41.2189H53.3008V40.0598H58.7972Z" fill="white"></path><path d="M72.8354 40.0598V41.2306H69.7089V41.8837H72.6888V43.0427H69.7089V44.6781H68.1309V40.0598H72.8354Z" fill="white"></path><path d="M80.7835 41.2189V40.0598H75.2871V41.2189H77.2288V44.6781H78.8361V41.2189H80.7835Z" fill="white"></path><path d="M86.7797 40.0598V44.6781H85.2076V43.0015H82.8494V44.6781H81.2773V40.0598H82.8494V41.7424H85.2076V40.0598H86.7797Z" fill="white"></path><path d="M92.5622 44.6781V43.531H89.2595V42.9309H92.4272V41.8072H89.2595V41.213H92.521V40.0598H87.7109V44.6781H92.5622Z" fill="white"></path><path d="M102.287 40.0598H103.806L102.123 44.6781H100.399C100.399 44.6781 99.4772 41.919 99.4711 41.8424C99.4665 41.919 98.5384 44.6781 98.5384 44.6781H96.8204L95.0957 40.0598H96.802C96.802 40.0598 97.8006 42.9661 97.8006 43.0367C97.8006 42.9661 98.721 40.0598 98.721 40.0598H100.37C100.37 40.0598 101.297 42.9661 101.297 43.0367C101.297 42.9661 102.287 40.0598 102.287 40.0598Z" fill="white"></path><path fill-rule="evenodd" clip-rule="evenodd" d="M106.819 39.9541C104.789 39.9541 103.722 40.919 103.722 42.3369C103.722 43.937 104.841 44.7489 106.819 44.7489C108.996 44.7489 109.91 43.8076 109.91 42.3369C109.91 40.8426 108.877 39.9541 106.819 39.9541ZM106.819 43.5664C105.664 43.5664 105.329 43.0898 105.329 42.3544C105.329 41.6309 105.693 41.1543 106.813 41.1543C108.04 41.1543 108.314 41.6896 108.314 42.3544C108.314 43.0604 107.98 43.5664 106.819 43.5664Z" fill="white"></path><path fill-rule="evenodd" clip-rule="evenodd" d="M115.719 40.5306C115.929 40.7483 116.029 41.0483 116.029 41.466C116.029 41.8249 115.942 42.1307 115.794 42.3367C115.63 42.5603 115.379 42.7486 115.067 42.7955L116.457 44.6781H114.71L113.565 43.0486H112.14V44.6781H110.574V40.0598H114.24C114.968 40.0598 115.443 40.2364 115.719 40.5306ZM114.452 41.8543C114.492 41.7837 114.504 41.6895 114.504 41.613C114.504 41.5247 114.492 41.4307 114.452 41.3718C114.369 41.2189 114.205 41.1777 113.958 41.1777H112.147V42.019H113.987C114.24 42.019 114.392 41.972 114.452 41.8543Z" fill="white"></path><path d="M121.354 44.6781V43.4486H118.55V40.0598H116.961V44.6781H121.354Z" fill="white"></path><path fill-rule="evenodd" clip-rule="evenodd" d="M127.575 42.2837C127.575 43.0015 127.505 43.3898 127.295 43.7546C126.977 44.3369 126.35 44.6781 125.241 44.6781H121.979V40.0598H125.205C126.308 40.0598 126.96 40.3717 127.282 40.907C127.511 41.266 127.575 41.6483 127.575 42.2837ZM124.942 43.5427C125.44 43.5427 125.722 43.425 125.893 43.1663C125.999 43.0074 126.028 42.6367 126.028 42.3132C126.022 42.019 125.986 41.7072 125.893 41.566C125.71 41.2895 125.436 41.1895 124.954 41.1895H123.552V43.5427H124.942Z" fill="white"></path><path d="M64.6494 67.1392H62.2186C62.2186 67.1392 60.6325 71.7892 60.6325 71.9021C60.6325 71.7892 59.1496 67.1392 59.1496 67.1392H56.5122C56.5122 67.1392 55.0387 71.7892 55.0387 71.9021C55.0387 71.7892 53.4432 67.1392 53.4432 67.1392H50.7119L53.4712 74.5282H56.2212C56.2212 74.5282 57.7041 70.1136 57.7135 69.9913C57.723 70.1136 59.1964 74.5282 59.1964 74.5282H61.9557L64.6494 67.1392Z" fill="white"></path><path d="M67.9756 74.5282V67.1392H65.3945V74.5282H67.9756Z" fill="white"></path><path d="M78.0154 67.1392V74.5282H75.5L71.8491 70.4149V74.5282H69.4277V67.1392H72.0743L75.6126 71.1585V67.1392H78.0154Z" fill="white"></path><path d="M88.0691 74.5282V67.1392H85.6665V71.1585L82.1282 67.1392H79.4814V74.5282H81.9028V70.4149L85.5539 74.5282H88.0691Z" fill="white"></path><path d="M97.2987 72.6927V74.5282H89.5361V67.1392H97.2327V68.9841H92.014V69.9349H97.0824V71.7327H92.014V72.6927H97.2987Z" fill="white"></path><path fill-rule="evenodd" clip-rule="evenodd" d="M107.22 69.3889C107.22 68.7205 107.06 68.2405 106.723 67.8922C106.281 67.4216 105.521 67.1392 104.357 67.1392H98.4912V74.5282H100.998V71.9209H103.279L105.109 74.5282H107.905L105.681 71.5162C106.178 71.4409 106.581 71.1396 106.845 70.7819C107.078 70.4525 107.22 69.963 107.22 69.3889ZM104.779 69.6242C104.779 69.7465 104.761 69.8972 104.695 70.0101C104.601 70.1984 104.357 70.2736 103.954 70.2736H101.007V68.9276H103.906C104.3 68.9276 104.564 68.9935 104.695 69.2382C104.761 69.3324 104.779 69.483 104.779 69.6242Z" fill="white"></path><path d="M57.1558 54.103L56.138 50.9612L55.1201 54.103H51.8262L54.491 56.0447L53.4732 59.1866L56.138 57.2449L58.8027 59.1866L57.7849 56.0447L60.4498 54.103H57.1558Z" fill="white"></path><path d="M67.889 50.959L68.9277 54.1008H72.2888L69.5696 56.0427L70.6083 59.1844L67.889 57.2427L65.1699 59.1844L66.2085 56.0427L63.4893 54.1008H66.8504L67.889 50.959Z" fill="white"></path><path d="M80.5849 54.1008L79.5464 50.959L78.5077 54.1008H75.1465L77.8658 56.0427L76.8271 59.1844L79.5464 57.2427L82.2655 59.1844L81.2269 56.0427L83.9462 54.1008H80.5849Z" fill="white"></path><path d="M91.2044 50.959L92.2431 54.1008H95.6042L92.8851 56.0427L93.9237 59.1844L91.2044 57.2427L88.4853 59.1844L89.524 56.0427L86.8047 54.1008H90.1659L91.2044 50.959Z" fill="white"></path><path d="M103.973 54.1008L102.955 50.959L101.936 54.1008H98.6426L101.307 56.0427L100.29 59.1844L102.955 57.2427L105.619 59.1844L104.602 56.0427L107.267 54.1008H103.973Z" fill="white"></path><path d="M146.707 17.2652C147.681 14.7814 147.258 11.9249 146.361 9.52277C145.416 6.99524 143.771 4.47416 141.314 3.14478C141.191 5.80862 142.003 8.44016 142.889 10.8132C143.687 12.9475 144.664 15.2214 146.279 16.9865C146.528 18.3237 146.718 19.6572 146.851 20.9846C146.316 19.5826 145.449 18.3048 144.366 17.2771C142.972 15.9532 140.897 14.932 138.95 15.536C139.521 17.6946 140.82 19.7642 142.36 21.2159C143.572 22.3585 145.172 23.8225 147.055 23.8802C147.134 25.8342 147.089 27.7703 146.928 29.6802C146.663 28.2826 146.094 26.9666 145.27 25.9866C144.139 24.6399 142.463 22.9948 140.323 23.27C140.439 25.4549 141.309 27.6935 142.519 29.3757C143.48 30.7125 144.75 32.4163 146.552 32.8565C146.264 34.7326 145.862 36.5777 145.351 38.3832C145.347 37.0008 145.043 35.6437 144.438 34.5552C143.587 33.0205 142.26 31.1062 140.117 30.9565C139.803 33.1 140.229 35.4432 141.088 37.3069C141.774 38.7966 142.69 40.6963 144.357 41.4823C143.656 43.4254 142.828 45.3143 141.877 47.1372C142.211 45.5659 142.197 43.91 141.803 42.42C141.259 40.3665 139.909 38.2092 137.74 37.5834C136.973 39.8508 137.078 42.3806 137.525 44.6849C137.891 46.5823 138.611 48.8106 140.225 50.0431C139.169 51.7519 138.002 53.3917 136.727 54.952C137.413 53.4218 137.752 51.7482 137.569 50.216C137.304 47.9846 136.68 45.598 134.408 44.4088C133.118 46.6395 132.819 49.1422 132.71 51.614C132.621 53.6125 132.908 56.0774 134.293 57.7032C132.769 59.29 131.128 60.7751 129.375 62.1446C130.507 60.6875 131.3 58.9778 131.467 57.2871C131.705 54.898 131.59 52.2682 129.474 50.5148C127.667 52.4086 126.588 55.1977 126.06 57.6202C125.592 59.7618 125.104 62.2971 126.216 64.4049C123.984 65.8668 121.601 67.1546 119.08 68.2454C120.854 66.978 122.305 65.2391 122.996 63.4437C123.903 61.0908 124.463 58.2868 122.699 55.9302C120.333 57.4494 118.595 60.0412 117.226 62.4054C116.051 64.434 114.834 67.2338 115.439 69.6497C114.043 70.1245 112.611 70.5414 111.146 70.8971L111.234 71.2579C112.703 70.9008 114.141 70.4825 115.541 70.0063C116.523 72.9149 119.738 73.8762 122.338 74.3003C126.043 74.9048 130.455 73.7337 133.618 71.3742C131.947 69.0082 128.542 68.7682 125.974 68.5871L125.94 68.5848C123.127 68.3865 120.083 68.6514 117.255 69.3888C120.522 68.1409 123.581 66.5717 126.402 64.7271L126.44 64.7886C127.985 67.3058 131.09 67.4043 133.526 67.2452C136.831 67.0295 140.646 65.0143 142.854 62.2286C140.777 60.4012 137.71 60.9125 135.333 61.3086L135.32 61.3108C132.668 61.7529 129.771 62.7174 127.338 64.2026C127.569 64.0197 127.795 63.8263 128.016 63.6234C130.381 61.9319 132.562 60.0397 134.543 57.9766C134.57 58.0042 134.598 58.0312 134.626 58.0582C136.552 59.986 139.349 59.4774 141.533 58.8465C144.463 58.0003 147.5 55.4475 148.956 52.5169C146.7 51.2492 144.003 52.2937 141.906 53.1202C139.6 54.0278 137.163 55.4803 135.288 57.3322C135.482 57.0875 135.667 56.8319 135.842 56.5672C137.583 54.5954 139.151 52.4839 140.528 50.2562L140.588 50.2932L140.604 50.3029C142.78 51.7079 145.247 50.6877 147.201 49.6843C149.853 48.3229 151.986 45.3309 152.906 42.3885C150.553 41.6326 148.229 43.1162 146.422 44.2911C144.443 45.5768 142.44 47.4106 141.065 49.5139C141.166 49.3063 141.262 49.094 141.349 48.8779C142.67 46.5666 143.791 44.1405 144.699 41.6237L144.747 41.6397L144.754 41.6428C146.735 42.3946 148.939 41.2212 150.376 39.9345C152.374 38.1449 153.783 35.3937 154.113 32.7059C152.049 32.4375 150.102 34.04 148.772 35.4066C147.241 36.9808 145.865 38.8412 145.02 40.908C145.083 40.6825 145.136 40.4534 145.181 40.2219C145.949 37.8575 146.532 35.4192 146.916 32.9266L146.974 32.9343C149.06 33.2731 150.99 31.6809 152.144 30.1355C153.767 27.9609 154.603 24.9512 154.392 22.2232C152.308 22.3697 150.719 24.3599 149.689 25.97C148.496 27.8348 147.506 29.9454 147.074 32.1535C147.088 31.9769 147.095 31.7994 147.098 31.6212C147.416 29.0839 147.529 26.4945 147.425 23.8732C149.556 23.7983 151.134 21.8143 151.947 20.0549C153.109 17.5385 153.296 14.3572 152.521 11.6765C150.492 12.2477 149.359 14.582 148.692 16.3791C147.922 18.4511 147.385 20.7112 147.381 22.958C147.27 21.0731 147.046 19.1731 146.707 17.2652Z" fill="white"></path></svg>