<svg xmlns="http://www.w3.org/2000/svg" width="168" height="80" viewBox="0 0 168 80" fill="none"><g clip-path="url(#clip0_58_54)"><path d="M151.916 5.68324C153.485 8.02324 154.991 10.9099 154.251 14.0034C151.694 12.5436 149.638 10.1602 148.008 7.80724C146.366 5.43848 144.661 2.91962 144.077 0C147.302 0.822857 150.188 3.10705 151.916 5.68324Z" fill="white"></path><path d="M13.328 13.9983C12.5891 10.9042 14.0985 8.01869 15.6706 5.68002C17.4012 3.10535 20.2887 0.823257 23.5135 0.00268555C22.9276 2.92173 21.2201 5.43964 19.5766 7.80688C17.9441 10.1587 15.8852 12.5406 13.328 13.9983Z" fill="white"></path><path d="M11.0775 19.9338C11.6543 17.4835 11.6415 14.8011 11.0924 12.5028C10.6096 10.483 9.90707 7.62774 7.59477 6.66431C5.91401 9.35421 5.23839 13.0173 6.21794 15.762C6.92621 17.7474 8.19995 20.3723 10.8416 20.7786C13.2655 21.3361 15.7166 20.046 17.6524 18.9809C19.8049 17.7967 21.9133 15.9127 23.1943 13.6729C20.8444 12.4895 18.1683 13.4498 16.155 14.3702C13.9847 15.3624 11.991 17.4912 11.0775 19.9338Z" fill="white"></path><path d="M58.1182 22.2877V9.9856H53.9086V14.4677H47.5943V9.9856H43.3848V22.2877H47.5943V17.8214H53.9086V22.2877H58.1182Z" fill="white"></path><path d="M72.076 9.9856H76.7252L70.1284 18.2288V22.2877H65.9032V18.2445L59.3848 9.9856H64.1752L68.0707 14.9064L72.076 9.9856Z" fill="white"></path><path fill-rule="evenodd" clip-rule="evenodd" d="M91.3872 11.0355C92.2197 11.6938 92.6909 12.8065 92.6909 14.4206C92.6909 15.737 92.361 16.7243 91.7327 17.414C90.8845 18.3856 89.4867 18.8243 87.6646 18.8401C87.0992 18.8557 82.2613 18.8401 82.2613 18.8401V22.2877H78.0361V9.9856H87.6018C89.298 9.9856 90.5861 10.3304 91.3872 11.0355ZM88.2614 15.3766C88.3872 15.1572 88.45 14.8751 88.45 14.4833C88.45 14.0759 88.3714 13.7311 88.2301 13.5431C87.963 13.1513 87.4604 12.9631 86.6436 12.9631H82.23V15.9721H86.6122C87.4919 15.9721 88.0102 15.7685 88.2614 15.3766Z" fill="white"></path><path d="M107.36 19.2317V22.2877H94.3711V9.9856H107.252V13.0572H98.5176V14.6401H107V17.6332H98.5176V19.2317H107.36Z" fill="white"></path><path fill-rule="evenodd" clip-rule="evenodd" d="M123.132 11.2393C123.699 11.8191 123.965 12.6184 123.965 13.7311C123.965 14.6871 123.73 15.502 123.337 16.0505C122.898 16.646 122.222 17.1475 121.389 17.2728L125.112 22.2877H120.431L117.369 17.9467H113.553V22.2877H109.358V9.9856H119.175C121.122 9.9856 122.396 10.4557 123.132 11.2393ZM119.74 14.7654C119.851 14.5774 119.881 14.3265 119.881 14.1229C119.881 13.8879 119.851 13.637 119.74 13.4803C119.52 13.0728 119.081 12.9631 118.421 12.9631H113.568V15.2043H118.499C119.175 15.2043 119.583 15.0789 119.74 14.7654Z" fill="white"></path><path d="M105.113 37.7173C105.113 34.9053 103.322 33.4274 99.1461 32.9757C98.4673 32.8936 96.4717 32.6883 95.2166 32.5856C91.9867 32.2367 91.0199 32.0521 91.0199 31.231C91.0199 30.4921 91.781 30.1432 94.6817 30.1432C96.7392 30.1432 97.8913 30.5331 98.3437 31.1283C98.5702 31.4157 98.6524 31.6414 98.6731 31.8674H104.598C104.536 31.3746 104.331 30.6767 104.001 30.0611C102.932 28.0083 100.36 26.3662 94.8259 26.3662C88.5921 26.3662 85.1771 28.5626 85.1771 31.4363C85.1771 34.2074 87.1108 35.8289 92.3364 36.3011C92.9273 36.3515 94.1962 36.4712 95.2352 36.5691L95.2993 36.5752L95.311 36.5763L95.3155 36.5767L95.8751 36.6294C98.6112 36.9169 99.3519 37.1014 99.3519 37.9637C99.3519 38.7641 98.6318 39.1952 95.6076 39.1952C93.2623 39.1952 91.8839 38.8462 91.3901 38.251C91.1844 38.0047 91.0403 37.6352 90.9993 37.3889H85.0742C85.1359 37.7994 85.2388 38.4563 85.465 38.99C86.4732 41.2479 89.1066 42.9721 95.2166 42.9721C101.78 42.9721 105.113 41.1247 105.113 37.7173Z" fill="white"></path><path fill-rule="evenodd" clip-rule="evenodd" d="M63.1082 41.084C63.7254 40.3656 64.034 39.2776 64.034 38.1692C64.034 37.225 63.7871 36.3218 63.2728 35.7265C62.6556 34.9259 61.5651 34.3513 60.4132 34.2077C61.195 34.105 61.9355 33.6945 62.3675 33.1608C62.9024 32.5244 63.1493 31.6623 63.1493 30.6155C63.1493 29.5686 62.8408 28.645 62.1413 27.9471C61.3595 27.1465 59.9399 26.6128 57.7181 26.6128H43.7695V42.7261H58.1089C60.3926 42.7261 62.1619 42.2334 63.1082 41.084ZM57.43 31.5802C57.43 31.9703 57.3065 32.2987 57.1009 32.5244C56.8128 32.7913 56.2779 32.8939 55.5784 32.8939H49.1597V30.2665H55.4345C56.2162 30.2665 56.7512 30.3692 57.039 30.636C57.3065 30.8617 57.43 31.1901 57.43 31.5802ZM58.0472 38.6414C57.7181 38.9492 57.142 39.0724 56.175 39.0724H49.1597V36.3835H56.2369C57.142 36.3835 57.6769 36.5065 57.9854 36.7734C58.2324 37.0197 58.3351 37.3277 58.3351 37.7381C58.3351 38.1282 58.2528 38.436 58.0472 38.6414Z" fill="white"></path><path d="M83.4074 38.7235V42.7261H66.3936V26.6128H83.2634V30.636H71.8247V32.7092H82.9343V36.6297H71.8247V38.7235H83.4074Z" fill="white"></path><path d="M125.132 30.6566V26.6128H105.855V30.6566H112.665V42.7261H118.301V30.6566H125.132Z" fill="white"></path><path d="M124.643 56.9844H123.736L123.671 56.1132C123.394 56.5542 122.808 57.0835 121.571 57.0835C119.481 57.0835 118.509 55.8263 118.509 52.6166C118.509 50.1351 119.127 48.1389 121.68 48.1389C123.892 48.1389 124.566 49.5839 124.599 51.1389H123.493C123.461 50.1243 123.007 49.1867 121.703 49.1867C120.133 49.1867 119.679 50.1243 119.679 52.65C119.679 55.286 120.244 56.1132 121.726 56.1132C122.764 56.1132 123.371 55.5397 123.572 54.8559V53.2124H121.338V52.2086H124.631V54.7456C124.631 55.5035 124.639 56.3124 124.641 56.7191L124.643 56.9126V56.9844Z" fill="white"></path><path fill-rule="evenodd" clip-rule="evenodd" d="M43.9784 54.7895H47.0736L47.7147 56.9843H48.8865L46.3218 48.2493H44.8959L42.1543 56.9843H43.315L43.9784 54.7895ZM46.7972 53.8079H44.2768C44.2768 53.8079 45.3711 50.2786 45.3933 50.2015C45.4043 50.1462 45.5813 49.3632 45.5813 49.3632L45.7037 49.9424L45.7581 50.2015C45.7692 50.2565 46.7972 53.8079 46.7972 53.8079Z" fill="white"></path><path d="M57.2775 48.2493H58.3388L56.2716 56.9843H54.9561C54.9561 56.9843 53.4859 50.1904 53.4859 49.9036C53.4748 50.1904 51.9714 56.9843 51.9714 56.9843H50.656L48.5889 48.2493H49.7826C49.7826 48.2493 51.3855 55.1645 51.3855 55.4403C51.3855 55.1645 52.8559 48.2493 52.8559 48.2493H54.1712C54.1712 48.2493 55.6414 55.1756 55.6414 55.4403C55.6414 55.1756 57.2775 48.2493 57.2775 48.2493Z" fill="white"></path><path fill-rule="evenodd" clip-rule="evenodd" d="M62.8781 54.7895H59.7829L59.1197 56.9843H57.959L60.7004 48.2493H62.1265L64.6912 56.9843H63.5194L62.8781 54.7895ZM60.0815 53.8079H62.6019C62.6019 53.8079 61.5739 50.2565 61.5628 50.2015L61.4792 49.8039L61.3858 49.3632C61.3858 49.3632 61.209 50.1462 61.198 50.2015C61.1758 50.2786 60.0815 53.8079 60.0815 53.8079Z" fill="white"></path><path fill-rule="evenodd" clip-rule="evenodd" d="M68.9506 48.2493C70.2992 48.2493 71.0288 48.8778 71.0288 50.7087C71.0288 52.2639 70.4429 52.7822 69.8349 52.9586L71.5153 56.9843H70.2992L68.7406 53.1794H66.6183V56.9843H65.5127V48.2493H68.9506ZM68.7849 52.1866C69.6581 52.1866 69.8681 51.7344 69.8681 50.7418C69.8681 49.6169 69.5365 49.275 68.7295 49.275H66.6291V52.1866H68.7849Z" fill="white"></path><path fill-rule="evenodd" clip-rule="evenodd" d="M78.3892 52.4735C78.3892 54.5359 78.2346 55.374 77.7924 56.0028C77.3503 56.6095 76.6539 56.9843 75.5262 56.9843H72.5195V48.2493H75.4488C76.5544 48.2493 77.4166 48.5801 77.8146 49.1757C78.2567 49.8154 78.3892 50.6095 78.3892 52.4735ZM75.2942 55.9476C75.9685 55.9476 76.5323 55.7712 76.8196 55.3851C77.1292 54.966 77.2176 54.1167 77.2176 52.4735C77.2176 51.0948 77.1401 50.3557 76.8196 49.8815C76.5212 49.4735 75.9464 49.2969 75.2721 49.2969H73.636V55.9476H75.2942Z" fill="white"></path><path d="M90.0529 48.2493H91.1142L89.047 56.9843H87.7315C87.7315 56.9843 86.2613 50.1904 86.2613 49.9036C86.2502 50.1904 84.7468 56.9843 84.7468 56.9843H83.4314L81.3643 48.2493H82.558C82.558 48.2493 84.1609 55.1645 84.1609 55.4403C84.1609 55.1645 85.6311 48.2493 85.6311 48.2493H86.9466C86.9466 48.2493 88.4168 55.1756 88.4168 55.4403C88.4168 55.1756 90.0529 48.2493 90.0529 48.2493Z" fill="white"></path><path d="M93.0676 48.2493V56.9843H91.918V48.2493H93.0676Z" fill="white"></path><path d="M100.265 48.2493V56.9843H98.9936L95.7325 50.2123V56.9843H94.6602V48.2493H95.9979L99.1814 54.9218V48.2493H100.265Z" fill="white"></path><path d="M107.433 48.2493V56.9843H106.162L102.901 50.2123V56.9843H101.829V48.2493H103.167L106.351 54.9218V48.2493H107.433Z" fill="white"></path><path d="M110.144 48.2493V56.9843H108.995V48.2493H110.144Z" fill="white"></path><path d="M117.342 48.2493V56.9843H116.071L112.81 50.2123V56.9843H111.737V48.2493H113.076L116.26 54.9218V48.2493H117.342Z" fill="white"></path><path d="M56.4238 74.2004L55.1571 70.3105L53.8902 74.2004H49.791L53.1073 76.6046L51.8406 80.4946L55.1571 78.0903L58.4736 80.4946L57.2067 76.6046L60.5232 74.2004H56.4238Z" fill="white"></path><path d="M71.073 74.2014L69.7803 70.3115L68.4877 74.2014H64.3047L67.6889 76.6054L66.3963 80.4953L69.7803 78.0913L73.1646 80.4953L71.8719 76.6054L75.256 74.2014H71.073Z" fill="white"></path><path d="M85.5837 74.2014L84.2911 70.3115L82.9984 74.2014H78.8154L82.1995 76.6054L80.9068 80.4953L84.2911 78.0913L87.6751 80.4953L86.3825 76.6054L89.7667 74.2014H85.5837Z" fill="white"></path><path d="M100.09 74.2014L98.7969 70.3115L97.5043 74.2014H93.3213L96.7053 76.6054L95.4127 80.4953L98.7969 78.0913L102.181 80.4953L100.888 76.6054L104.273 74.2014H100.09Z" fill="white"></path><path d="M114.688 74.2014L113.422 70.3115L112.154 74.2014H108.056L111.372 76.6054L110.106 80.4953L113.422 78.0913L116.738 80.4953L115.471 76.6054L118.789 74.2014H114.688Z" fill="white"></path><path d="M3.61138 26.5459C4.80342 28.3604 6.64798 30.6331 9.33751 30.5684C11.7832 30.6903 13.8962 29.025 15.5602 27.635C17.3523 26.1381 18.9698 23.949 19.6527 21.5823C17.1512 20.8562 14.7563 22.2013 12.9703 23.4701C11.1053 24.7952 9.67103 27.2204 9.3629 29.7105C9.3398 27.2158 8.66303 24.6392 7.57198 22.5636C6.57448 20.6661 5.18448 18.1011 2.70457 17.5884C1.72749 20.541 2.03925 24.1535 3.61138 26.5459Z" fill="white"></path><path d="M10.1331 40.3408C7.63694 40.7581 5.20209 39.2322 3.62079 37.4374C1.58494 35.1265 0.373612 32.0265 0.620648 28.9231C3.18494 28.988 5.12706 31.1997 6.5625 32.872C8.10849 34.6732 9.37517 37.0429 9.98283 39.4875C9.71556 37.0513 10.5353 34.4206 12.0571 32.7951C13.5259 31.226 15.5835 29.5159 18.1436 29.7903C18.0885 32.2606 16.8474 34.6141 15.5673 36.3768C14.3741 38.0195 12.5361 40.0513 10.1331 40.3408Z" fill="white"></path><path d="M5.52319 48.549C7.82212 50.0424 10.6103 51.5205 13.5406 50.4018C15.9445 49.5532 17.473 47.1389 18.413 44.9229C19.4088 42.5749 20.0739 39.8675 19.6134 37.2976C16.9718 37.5315 14.7813 39.4172 13.6179 41.7191C12.4016 44.1256 12.1684 46.99 13.1027 49.513C11.7222 46.9174 9.70334 44.8172 7.56478 42.8767C5.62075 41.1127 2.82049 39.2544 0 39.6039C0.536645 43.0829 2.66452 46.6923 5.52319 48.549Z" fill="white"></path><path d="M19.4622 59.8071C21.7245 58.4578 22.6349 55.6186 23.007 53.1856C23.4081 50.5618 23.3909 47.6681 22.2987 45.179C19.6741 45.9104 17.8725 48.2673 17.2776 50.8489C16.6491 53.5763 17.1795 56.4831 18.7083 58.8054C16.6761 56.4791 13.9737 54.5584 11.3841 53.2115C8.88258 51.9106 5.81372 50.3414 2.80957 51.289C4.25819 54.8165 7.35702 58.1007 10.7915 59.4591C13.4512 60.5109 16.6869 61.5511 19.4622 59.8071Z" fill="white"></path><path d="M30.1874 60.7201C30.5194 63.2527 30.51 66.4649 28.5393 68.4142C26.0765 70.9292 22.2652 70.4439 19.3256 69.8906C15.3791 69.1472 10.9367 66.4616 8.55566 62.8858C11.4636 61.2883 15.02 62.3102 17.8989 63.1374L18.0633 63.1845C21.2769 64.107 24.7014 65.5927 27.5654 67.6228C25.2799 65.5622 23.6146 62.5378 23.5331 59.4894C23.4597 56.763 24.6459 53.846 27.1983 52.5464C28.9803 54.8799 29.8147 57.8759 30.1874 60.7201Z" fill="white"></path><path d="M41.625 75.5854C43.0763 72.829 41.6384 69.5939 40.4925 67.2029C39.1378 64.3762 37.287 61.4955 34.6381 59.4265C32.0946 61.6136 32.3365 64.7429 33.0927 67.4625C33.9919 70.6962 37.1092 73.4528 40.3373 75.0236C36.5987 73.6326 32.5158 72.7977 28.6312 72.5513L28.2377 72.5259C25.1169 72.3231 21.0542 72.0591 18.5674 74.3377C22.3273 77.5269 27.668 79.3669 32.3751 79.2713C35.5295 79.2073 39.8574 78.8349 41.625 75.5854Z" fill="white"></path><path d="M156.496 19.9425C155.585 17.4981 153.592 15.3667 151.424 14.3726C149.41 13.4507 146.735 12.4886 144.385 13.6699C145.664 15.9107 147.77 17.7962 149.921 18.9821C151.855 20.0484 154.304 21.3402 156.729 20.785C159.371 20.3812 160.648 17.7568 161.358 15.7715C162.342 13.028 161.67 9.36423 159.992 6.67261C157.678 7.6347 156.971 10.4892 156.488 12.5088C155.937 14.8077 155.921 17.4911 156.496 19.9425Z" fill="white"></path><path d="M154.597 23.475C156.46 24.8007 157.89 27.2245 158.197 29.7129C158.224 27.2195 158.904 24.6454 159.996 22.5719C160.994 20.675 162.388 18.1111 164.868 17.6001C165.841 20.5536 165.526 24.166 163.951 26.5571C162.76 28.3683 160.916 30.6363 158.232 30.5755C155.782 30.7003 153.667 29.031 152.002 27.6382C150.212 26.1397 148.597 23.9494 147.917 21.5824C150.418 20.8578 152.812 22.2049 154.597 23.475Z" fill="white"></path><path d="M157.566 39.5035C157.839 37.0652 157.022 34.429 155.498 32.8002C154.032 31.23 151.976 29.5183 149.416 29.7909C149.468 32.2612 150.707 34.6159 151.986 36.3795C153.177 38.0223 155.012 40.0542 157.413 40.3469C159.91 40.7688 162.348 39.2437 163.933 37.449C165.97 35.1399 167.184 32.0408 166.941 28.937C164.376 29.0002 162.432 31.2101 160.995 32.8814C159.444 34.6837 158.175 37.0561 157.566 39.5035Z" fill="white"></path><path d="M153.932 41.7237C155.146 44.1315 155.377 46.9965 154.44 49.5187C155.822 46.9235 157.844 44.8247 159.984 42.8854C161.929 41.1228 164.732 39.2669 167.551 39.6184C167.013 43.0972 164.881 46.705 162.021 48.5595C159.722 50.049 156.937 51.5241 154.01 50.41C151.603 49.5629 150.074 47.1437 149.134 44.9239C148.14 42.5751 147.477 39.8673 147.941 37.2976C150.581 37.5336 152.771 39.421 153.932 41.7237Z" fill="white"></path><path d="M148.829 58.8011C150.356 56.4811 150.889 53.5771 150.264 50.851C149.673 48.2689 147.872 45.9106 145.247 45.1772C144.153 47.6652 144.134 50.5588 144.531 53.1831C144.902 55.6113 145.807 58.4449 148.056 59.7991C150.833 61.5569 154.077 60.5172 156.74 59.4658C160.176 58.1098 163.279 54.8279 164.73 51.3012C161.727 50.3517 158.657 51.9186 156.154 53.2176C153.565 54.5618 150.862 56.4786 148.829 58.8011Z" fill="white"></path><path d="M137.344 60.7128C137.01 63.2448 137.016 66.4568 138.986 68.4079C141.445 70.9248 145.257 70.4422 148.197 69.8907C152.145 69.1504 156.59 66.4677 158.974 62.894C156.068 61.2945 152.51 62.3134 149.631 63.1384L149.465 63.1856C146.252 64.1052 142.827 65.5879 139.961 67.6149C142.248 65.5561 143.915 62.5342 143.999 59.4869C144.075 56.7606 142.892 53.8427 140.341 52.541C138.556 54.8732 137.72 57.8688 137.344 60.7128Z" fill="white"></path><path d="M135.138 79.2621C131.985 79.1956 127.657 78.8202 125.893 75.5692L125.868 75.5246C124.459 72.7766 125.891 69.5648 127.032 67.1878C128.39 64.3621 130.243 61.4827 132.893 59.416C135.436 61.6048 135.19 64.7339 134.432 67.4528C133.529 70.6859 130.41 73.4406 127.179 75.0088C130.919 73.6206 135.003 72.7888 138.888 72.545L139.283 72.5198C142.404 72.3194 146.467 72.0589 148.951 74.3389C145.188 77.5248 139.846 79.3612 135.138 79.2621Z" fill="white"></path></g><defs><clipPath id="clip0_58_54"><rect width="168" height="80" fill="white"></rect></clipPath></defs></svg>