<svg xmlns="http://www.w3.org/2000/svg" width="181" height="25" viewBox="0 0 181 25" fill="none"><path d="M4.4 23.5L5.5 15.8H0L9.9 1.5H12.1L11 10.3H17.6L6.6 23.5H4.4Z" fill="#EB6029"></path><path d="M29.774 5.027C30.88 5.027 31.853 5.188 32.693 5.51C33.547 5.832 34.31 6.315 34.982 6.959L33.239 9.017C32.231 8.219 31.174 7.82 30.068 7.82C29.494 7.82 29.053 7.932 28.745 8.156C28.451 8.366 28.304 8.667 28.304 9.059C28.304 9.339 28.381 9.57 28.535 9.752C28.689 9.934 28.948 10.109 29.312 10.277C29.676 10.445 30.25 10.655 31.034 10.907C32.532 11.383 33.624 11.985 34.31 12.713C35.01 13.427 35.36 14.421 35.36 15.695C35.36 16.619 35.122 17.438 34.646 18.152C34.17 18.852 33.477 19.398 32.567 19.79C31.671 20.182 30.614 20.378 29.396 20.378C27.072 20.378 25.175 19.671 23.705 18.257L25.616 16.136C26.778 17.088 27.989 17.564 29.249 17.564C29.907 17.564 30.418 17.424 30.782 17.144C31.146 16.85 31.328 16.465 31.328 15.989C31.328 15.653 31.258 15.38 31.118 15.17C30.978 14.946 30.726 14.75 30.362 14.582C30.012 14.4 29.494 14.204 28.808 13.994C27.156 13.476 25.994 12.853 25.322 12.125C24.65 11.397 24.314 10.48 24.314 9.374C24.314 8.506 24.545 7.743 25.007 7.085C25.483 6.427 26.134 5.923 26.96 5.573C27.8 5.209 28.738 5.027 29.774 5.027ZM43.9506 8.429C45.3506 8.429 46.4006 8.954 47.1006 10.004C47.8006 11.04 48.1506 12.496 48.1506 14.372C48.1506 15.52 47.9686 16.549 47.6046 17.459C47.2406 18.369 46.7156 19.083 46.0296 19.601C45.3576 20.119 44.5806 20.378 43.6986 20.378C42.5926 20.378 41.7036 20 41.0316 19.244V24.326L37.2936 24.704V8.807H40.6116L40.7796 9.983C41.2136 9.437 41.7036 9.045 42.2496 8.807C42.8096 8.555 43.3766 8.429 43.9506 8.429ZM42.5016 17.69C43.6916 17.69 44.2866 16.598 44.2866 14.414C44.2866 13.14 44.1536 12.279 43.8876 11.831C43.6356 11.369 43.2506 11.138 42.7326 11.138C42.0606 11.138 41.4936 11.53 41.0316 12.314V16.808C41.2416 17.116 41.4586 17.34 41.6826 17.48C41.9206 17.62 42.1936 17.69 42.5016 17.69ZM59.3413 16.556C59.3413 16.962 59.3903 17.263 59.4883 17.459C59.6003 17.655 59.7893 17.802 60.0553 17.9L59.2993 20.315C58.5853 20.259 57.9973 20.112 57.5353 19.874C57.0873 19.636 56.7233 19.258 56.4433 18.74C55.7293 19.832 54.6023 20.378 53.0623 20.378C51.9563 20.378 51.0673 20.056 50.3953 19.412C49.7373 18.754 49.4083 17.907 49.4083 16.871C49.4083 15.639 49.8633 14.694 50.7733 14.036C51.6833 13.378 52.9993 13.049 54.7213 13.049H55.6873V12.671C55.6873 12.069 55.5613 11.663 55.3093 11.453C55.0573 11.229 54.6023 11.117 53.9443 11.117C53.5943 11.117 53.1533 11.173 52.6213 11.285C52.1033 11.383 51.5713 11.523 51.0253 11.705L50.2063 9.29C50.8783 9.01 51.5993 8.8 52.3693 8.66C53.1393 8.506 53.8533 8.429 54.5113 8.429C56.1913 8.429 57.4163 8.765 58.1863 9.437C58.9563 10.095 59.3413 11.11 59.3413 12.482V16.556ZM54.1963 17.753C54.5043 17.753 54.7843 17.676 55.0363 17.522C55.3023 17.354 55.5193 17.13 55.6873 16.85V15.044H55.0573C54.3853 15.044 53.8883 15.17 53.5663 15.422C53.2443 15.66 53.0833 16.024 53.0833 16.514C53.0833 16.892 53.1813 17.193 53.3773 17.417C53.5733 17.641 53.8463 17.753 54.1963 17.753ZM68.4512 8.471C68.8152 8.471 69.1932 8.534 69.5852 8.66L68.9762 12.272C68.6122 12.16 68.2762 12.104 67.9682 12.104C67.3382 12.104 66.8552 12.321 66.5192 12.755C66.1972 13.175 65.9452 13.819 65.7632 14.687V20H62.0252V8.807H65.2802L65.6162 10.928C65.8402 10.186 66.2112 9.591 66.7292 9.143C67.2612 8.695 67.8352 8.471 68.4512 8.471ZM74.694 4.019V20H70.956V4.397L74.694 4.019ZM81.729 8.807L78.558 13.721L81.96 20H77.802L74.778 13.889L77.991 8.807H81.729ZM97.7308 5.405L97.3318 8.156H92.3548V11.264H96.7018V13.931H92.3548V17.249H97.6678V20H88.4698V5.405H97.7308ZM102.847 20.378C101.797 20.378 100.985 20.084 100.411 19.496C99.8374 18.908 99.5504 18.061 99.5504 16.955V4.397L103.288 4.019V16.829C103.288 17.235 103.47 17.438 103.834 17.438C103.988 17.438 104.149 17.41 104.317 17.354L105.01 20C104.436 20.252 103.715 20.378 102.847 20.378ZM116.391 14.225C116.391 14.309 116.37 14.729 116.328 15.485H109.482C109.58 16.339 109.818 16.927 110.196 17.249C110.588 17.557 111.141 17.711 111.855 17.711C112.275 17.711 112.688 17.634 113.094 17.48C113.514 17.312 113.969 17.06 114.459 16.724L115.971 18.782C115.383 19.272 114.711 19.664 113.955 19.958C113.199 20.238 112.38 20.378 111.498 20.378C109.594 20.378 108.145 19.846 107.151 18.782C106.171 17.704 105.681 16.262 105.681 14.456C105.681 13.322 105.884 12.3 106.29 11.39C106.71 10.48 107.326 9.759 108.138 9.227C108.95 8.695 109.93 8.429 111.078 8.429C112.716 8.429 114.011 8.94 114.963 9.962C115.915 10.97 116.391 12.391 116.391 14.225ZM112.716 13.175C112.702 12.433 112.576 11.859 112.338 11.453C112.1 11.047 111.701 10.844 111.141 10.844C110.623 10.844 110.231 11.026 109.965 11.39C109.699 11.754 109.531 12.391 109.461 13.301H112.716V13.175ZM123.378 8.429C124.19 8.429 124.918 8.548 125.562 8.786C126.206 9.024 126.794 9.381 127.326 9.857L125.751 12.041C125.107 11.523 124.428 11.264 123.714 11.264C123.028 11.264 122.51 11.516 122.16 12.02C121.81 12.51 121.635 13.329 121.635 14.477C121.635 15.597 121.81 16.381 122.16 16.829C122.51 17.263 123.014 17.48 123.672 17.48C124.022 17.48 124.344 17.424 124.638 17.312C124.932 17.2 125.289 17.011 125.709 16.745L127.326 19.034C126.248 19.93 124.967 20.378 123.483 20.378C122.307 20.378 121.285 20.133 120.417 19.643C119.563 19.153 118.905 18.467 118.443 17.585C117.981 16.689 117.75 15.66 117.75 14.498C117.75 13.322 117.981 12.279 118.443 11.369C118.905 10.445 119.556 9.724 120.396 9.206C121.25 8.688 122.244 8.429 123.378 8.429ZM136.22 19.454C135.786 19.762 135.282 19.993 134.708 20.147C134.134 20.301 133.574 20.378 133.028 20.378C130.438 20.378 129.143 18.95 129.143 16.094V11.369H127.694V8.807H129.143V6.434L132.881 5.993V8.807H135.422L135.044 11.369H132.881V16.052C132.881 16.556 132.958 16.913 133.112 17.123C133.28 17.333 133.525 17.438 133.847 17.438C134.239 17.438 134.617 17.333 134.981 17.123L136.22 19.454ZM143.876 8.471C144.24 8.471 144.618 8.534 145.01 8.66L144.401 12.272C144.037 12.16 143.701 12.104 143.393 12.104C142.763 12.104 142.28 12.321 141.944 12.755C141.622 13.175 141.37 13.819 141.188 14.687V20H137.45V8.807H140.705L141.041 10.928C141.265 10.186 141.636 9.591 142.154 9.143C142.686 8.695 143.26 8.471 143.876 8.471ZM150.118 8.807V20H146.38V8.807H150.118ZM148.249 2.78C148.879 2.78 149.39 2.976 149.782 3.368C150.188 3.76 150.391 4.25 150.391 4.838C150.391 5.426 150.188 5.916 149.782 6.308C149.39 6.7 148.879 6.896 148.249 6.896C147.619 6.896 147.101 6.7 146.695 6.308C146.303 5.916 146.107 5.426 146.107 4.838C146.107 4.25 146.303 3.76 146.695 3.368C147.101 2.976 147.619 2.78 148.249 2.78ZM157.788 8.429C158.6 8.429 159.328 8.548 159.972 8.786C160.616 9.024 161.204 9.381 161.736 9.857L160.161 12.041C159.517 11.523 158.838 11.264 158.124 11.264C157.438 11.264 156.92 11.516 156.57 12.02C156.22 12.51 156.045 13.329 156.045 14.477C156.045 15.597 156.22 16.381 156.57 16.829C156.92 17.263 157.424 17.48 158.082 17.48C158.432 17.48 158.754 17.424 159.048 17.312C159.342 17.2 159.699 17.011 160.119 16.745L161.736 19.034C160.658 19.93 159.377 20.378 157.893 20.378C156.717 20.378 155.695 20.133 154.827 19.643C153.973 19.153 153.315 18.467 152.853 17.585C152.391 16.689 152.16 15.66 152.16 14.498C152.16 13.322 152.391 12.279 152.853 11.369C153.315 10.445 153.966 9.724 154.806 9.206C155.66 8.688 156.654 8.429 157.788 8.429ZM172.273 16.556C172.273 16.962 172.322 17.263 172.42 17.459C172.532 17.655 172.721 17.802 172.987 17.9L172.231 20.315C171.517 20.259 170.929 20.112 170.467 19.874C170.019 19.636 169.655 19.258 169.375 18.74C168.661 19.832 167.534 20.378 165.994 20.378C164.888 20.378 163.999 20.056 163.327 19.412C162.669 18.754 162.34 17.907 162.34 16.871C162.34 15.639 162.795 14.694 163.705 14.036C164.615 13.378 165.931 13.049 167.653 13.049H168.619V12.671C168.619 12.069 168.493 11.663 168.241 11.453C167.989 11.229 167.534 11.117 166.876 11.117C166.526 11.117 166.085 11.173 165.553 11.285C165.035 11.383 164.503 11.523 163.957 11.705L163.138 9.29C163.81 9.01 164.531 8.8 165.301 8.66C166.071 8.506 166.785 8.429 167.443 8.429C169.123 8.429 170.348 8.765 171.118 9.437C171.888 10.095 172.273 11.11 172.273 12.482V16.556ZM167.128 17.753C167.436 17.753 167.716 17.676 167.968 17.522C168.234 17.354 168.451 17.13 168.619 16.85V15.044H167.989C167.317 15.044 166.82 15.17 166.498 15.422C166.176 15.66 166.015 16.024 166.015 16.514C166.015 16.892 166.113 17.193 166.309 17.417C166.505 17.641 166.778 17.753 167.128 17.753ZM177.944 20.378C176.894 20.378 176.082 20.084 175.508 19.496C174.934 18.908 174.647 18.061 174.647 16.955V4.397L178.385 4.019V16.829C178.385 17.235 178.567 17.438 178.931 17.438C179.085 17.438 179.246 17.41 179.414 17.354L180.107 20C179.533 20.252 178.812 20.378 177.944 20.378Z" fill="white"></path></svg>